<?xml version="1.0" standalone="no"?>
<!DOCTYPE svg PUBLIC "-//W3C//DTD SVG 20010904//EN"
 "http://www.w3.org/TR/2001/REC-SVG-20010904/DTD/svg10.dtd">
<svg version="1.0" xmlns="http://www.w3.org/2000/svg" width="256.000000pt" height="256.000000pt" viewBox="0 0 256.000000 256.000000" preserveAspectRatio="xMidYMid meet">
    <g transform="translate(0.000000,256.000000) scale(0.100000,-0.100000)" fill="currentColor" stroke="currentColor" stroke-width="50">
        <path d="M1235 2228 c-11 -6 -28 -20 -37 -32 -16 -19 -18 -64 -18 -559 l0 -539 29 -29 c41 -41 101 -41 142 0 l29 29 0 539 c0 495 -2 540 -18 559 -33 42 -86 55 -127 32z"/>
        <path d="M875 1977 c-226 -122 -380 -316 -446 -562 -29 -105 -31 -306 -6 -409 57 -229 192 -422 380 -544 347 -226 810 -175 1102 122 170 172 267 426 251 661 -20 319 -202 597 -483 739 -72 36 -107 34 -149 -8 -64 -64 -40 -126 68 -183 110 -57 233 -183 287 -293 158 -324 44 -701 -269 -887 -19 -11 -69 -33 -110 -49 -69 -25 -87 -28 -215 -28 -152 -1 -191 7 -310 67 -269 134 -413 440 -350 742 8 39 33 108 57 155 54 111 177 237 286 293 108 57 132 119 68 183 -44 44 -81 44 -161 1z"/>
    </g>
</svg>
